<svg id="Capa_1" data-name="Capa 1" xmlns="http://www.w3.org/2000/svg" xmlns:xlink="http://www.w3.org/1999/xlink" viewBox="0 0 941.75 641.03"><defs><style>.cls-1{fill:#5b646f;}.cls-2{fill:#231f20;}.cls-3{fill:#233445;}.cls-4{fill:#2f3e4e;}.cls-5{fill:url(#Degradado_sin_nombre_80);}.cls-6{fill:#243445;}</style><linearGradient id="Degradado_sin_nombre_80" x1="50.51" y1="284.37" x2="892.27" y2="284.37" gradientUnits="userSpaceOnUse"><stop offset="0" stop-color="#e66c25"/><stop offset="0.71" stop-color="#e66c25"/><stop offset="0.91" stop-color="#233445"/></linearGradient></defs><title>1jenco-logo-color</title><path class="cls-1" d="M167.19,514.09H178L211.74,577h-15.9l-23.26-46.83L149.31,577h-15.9Zm-17.88,41h47.33V565H149.31Z"/><path class="cls-1" d="M232.71,574.87a23.25,23.25,0,0,1-11-8,21.08,21.08,0,0,1-3.78-12.65V514.09h14.79v40.43a11.16,11.16,0,0,0,4.55,9.52q4.55,3.38,12.84,3.37T263,564a11.14,11.14,0,0,0,4.58-9.52V514.09h14.78v40.13a21,21,0,0,1-3.8,12.65,23.47,23.47,0,0,1-11,8,56.52,56.52,0,0,1-34.83,0Z"/><path class="cls-1" d="M289.82,514.09h64.71V524H289.82Zm25,5.15h14.73V577H314.81Z"/><path class="cls-1" d="M376.68,574.74a25.71,25.71,0,0,1-11.32-8.13,19.47,19.47,0,0,1-4-12.17V536.62a19.47,19.47,0,0,1,4-12.17,25.71,25.71,0,0,1,11.32-8.13,51,51,0,0,1,33.78,0,25.71,25.71,0,0,1,11.32,8.13,19.47,19.47,0,0,1,4,12.17v17.82a19.47,19.47,0,0,1-4,12.17,25.71,25.71,0,0,1-11.32,8.13,51,51,0,0,1-33.78,0Zm25.83-8.93a13.31,13.31,0,0,0,6-4.43,11,11,0,0,0,2.1-6.64V536.32a11,11,0,0,0-2.1-6.64,13.31,13.31,0,0,0-6-4.43,26.4,26.4,0,0,0-17.88,0,13.31,13.31,0,0,0-6,4.43,11,11,0,0,0-2.1,6.64v18.42a11,11,0,0,0,2.1,6.64,13.31,13.31,0,0,0,6,4.43,26.4,26.4,0,0,0,17.88,0Z"/><path class="cls-1" d="M443.75,514.09h14.78V577H443.75Zm7.11,28.59h28.77a16,16,0,0,0,6.28-1.15,9.65,9.65,0,0,0,4.21-3.27,8.17,8.17,0,0,0,1.51-4.88,8.37,8.37,0,0,0-1.48-4.93,9.62,9.62,0,0,0-4.21-3.29,15.86,15.86,0,0,0-6.31-1.17H450.86v-9.9H479.2a40.19,40.19,0,0,1,14.47,2.4,22.23,22.23,0,0,1,9.72,6.77,16.5,16.5,0,0,1,0,20.22,22.15,22.15,0,0,1-9.72,6.72,40.42,40.42,0,0,1-14.47,2.38H450.86Z"/><path class="cls-1" d="M542.18,514.09h10.76L586.72,577h-15.9l-23.26-46.83L524.3,577H508.4Zm-17.88,41h47.33V565H524.3Z"/><path class="cls-1" d="M599.1,514.05h14.79V577H599.1Zm6.12,27.07h31a13.33,13.33,0,0,0,5.48-1.06,8.48,8.48,0,0,0,3.68-3,8.38,8.38,0,0,0,1.36-4.54,7.92,7.92,0,0,0-1.3-4.49,8.48,8.48,0,0,0-3.68-3,13.65,13.65,0,0,0-5.54-1.06h-31v-9.9h31.43A35.94,35.94,0,0,1,650,516.34a20.42,20.42,0,0,1,8.94,6.49,16.4,16.4,0,0,1,0,19.41,20.4,20.4,0,0,1-9,6.49A36,36,0,0,1,636.65,551H605.22Zm21.72,8,15.34-2L665.92,577H648.16Z"/><path class="cls-1" d="M669.32,514.09H734V524H669.32Zm25,5.15H709V577H694.31Z"/><path class="cls-1" d="M763.86,577.62l-6-.89a65.9,65.9,0,0,1-11.19-2.62,48.21,48.21,0,0,1-9.56-4.28l7.86-8.26a42.44,42.44,0,0,0,11.66,4.65,57.22,57.22,0,0,0,13.7,1.58q9,0,14-2.25c3.31-1.5,5-3.62,5-6.35v-.05a5.51,5.51,0,0,0-2.23-4.6A14.71,14.71,0,0,0,781.3,552q-3.59-.79-9.22-1.49a1.5,1.5,0,0,0-.37,0,1.61,1.61,0,0,1-.37,0l-1.11-.13a123.37,123.37,0,0,1-14.85-2.46,22.63,22.63,0,0,1-9.9-5.11q-4.08-3.68-4.08-10.42v0a14.68,14.68,0,0,1,3.83-10.21q3.84-4.23,11.14-6.44a61.26,61.26,0,0,1,17.57-2.21,63.34,63.34,0,0,1,9.68.76,66.87,66.87,0,0,1,9.53,2.2,61.56,61.56,0,0,1,9.06,3.62L795,528.54a51.39,51.39,0,0,0-10.58-3.94,43.67,43.67,0,0,0-10.52-1.34q-8.54,0-13.21,2.18c-3.11,1.46-4.67,3.51-4.67,6.17v0a5.48,5.48,0,0,0,2.41,4.71,16.1,16.1,0,0,0,6,2.53c2.41.54,5.78,1.1,10.11,1.71l.47.07.46.06.68.09.68.08a100.44,100.44,0,0,1,14,2.81,22.36,22.36,0,0,1,9.37,5.28q3.78,3.63,3.78,9.9V559a14.18,14.18,0,0,1-4,10.08q-4,4.19-11.51,6.37a65.87,65.87,0,0,1-18.19,2.19Z"/><path class="cls-2" d="M587.64,214.54l8.15,1.65a73.75,73.75,0,0,1-8.47-3.59C587.43,213.25,587.55,213.89,587.64,214.54Z"/><path class="cls-3" d="M660,226.76l-41.62-12.6A122.14,122.14,0,0,0,608.2,179l24.7-28.6-4-3-31.7-36.85-1-2.14-.67.25-.25-.28-1.06.79L560,122.41a166.34,166.34,0,0,0-35-18.58l-6.61-33.07.25-3.28-61.79-4.07-.14,1.92L445,92.35a180.53,180.53,0,0,0-40.78,7.93L376.33,80.44l-1.25-2-.91.48-.48-.34-.89,1.08L327.58,104l.06.09-.42,0,4.9,42.46a136,136,0,0,0-16.39,23.1l-42.22,1.64-2.74-.51L260,221l2,.38,11,5.92,13-3.82L334.51,214c11.21-51.3,63.3-90.11,125.91-90.11,64.78,0,118.27,41.56,126.9,95.5a72.11,72.11,0,0,0,8.47,3.6l11.59,2.35,27.13,9.35,24.26,12,1.31-17.33.5-1.45C660.38,227.55,660.21,227.15,660,226.76Z"/><path class="cls-4" d="M460.42,148.11c43.89,0,80.77,25.89,91.34,61l11.4,2.31c-9.8-41.28-52.07-72.33-102.74-72.33-48.17,0-88.73,28.08-101,66.33l11.48-1.47C383.37,171.5,418.72,148.11,460.42,148.11Z"/><polyline class="cls-2" points="139.1 295.28 139.1 305.5 427.11 302.54"/><path class="cls-5" d="M50.58,363.1c-.6,5.47,3,8,7.92,5.62l9.36-4.49c5-2.38,9.31-8.81,9.67-14.3l3.39-52.31a12.29,12.29,0,0,1,10.6-11l86.94-8.91a92.79,92.79,0,0,0,19.3-4.55l55.64-21c5.15-1.95,13.7-4.71,19-6.14l50.23-13.51a197.57,197.57,0,0,1,19.56-4L381.54,223c5.45-.77,14.39-1.81,19.86-2.33l12.36-1.17c5.48-.52,14.46-.94,20-.94h47.83a134.58,134.58,0,0,1,19.84,1.78l43.52,7.86c5.41,1,14.16,3,19.43,4.6l32.93,9.7c5.27,1.55,13.78,4.46,18.91,6.46l38.76,15.12c5.12,2,13.31,5.69,18.2,8.22l10.92,5.64a65.34,65.34,0,0,0,18.83,5.71l59.43,6.77c5.47.63,14.4,1.7,19.86,2.38l45.9,5.78a134.27,134.27,0,0,1,13.31,2.22,55.38,55.38,0,0,1,6.53,2.43c1.72.81,4.75,3.65,6.73,6.33a66.93,66.93,0,0,1,6,10.22,126.06,126.06,0,0,1,4.48,12.14c1.15,3.73,5.64,9.55,10,12.93l9.27,7.22c4.34,3.39,7.89,3.74,7.89.8a94.49,94.49,0,0,0-2.09-15.09,113.61,113.61,0,0,0-6.2-18.85l-2.74-6.09A86.41,86.41,0,0,0,873,298.35a58.91,58.91,0,0,0-9.44-9.25,82.13,82.13,0,0,0-10.18-6.32c-2.7-1.34-9.38-2.91-14.85-3.49l-3.07-.33c-5.47-.58-14.39-1.74-19.82-2.59l-17.81-2.76c-5.43-.85-14.33-2.22-19.76-3l-33.35-5.06c-5.43-.83-14.32-2.24-19.75-3.15l-13.77-2.29a132.54,132.54,0,0,1-19.27-5l-16.14-5.84c-5.18-1.87-13.6-5.05-18.71-7.07l-60.42-23.83a117.56,117.56,0,0,0-19.15-5.37L554.62,209c-5.42-.94-14.24-2.69-19.61-3.89l-9-2a144.28,144.28,0,0,0-19.75-2.71l-14.58-.75c-5.49-.29-14.49-.5-20-.48l-70.36.31a172.2,172.2,0,0,0-19.9,1.5l-33.41,4.89c-5.45.79-14.25,2.6-19.57,4l-52.66,14c-5.32,1.4-13.87,4.17-19,6.14l-58.55,22.51a86.41,86.41,0,0,1-19.29,4.5L71.05,266.78a12.79,12.79,0,0,0-11,10.85Z"/><path class="cls-3" d="M121.19,340.58h43.7v90.59c0,40.82-26.45,55.07-69,55.07-10.06,0-23.28-1.28-31.91-3.41l4.89-26.15a95.51,95.51,0,0,0,22.42,2.55c18.4,0,29.9-6.16,29.9-28.49Z"/><path class="cls-3" d="M316.67,423.3H245.38v34H325V483.9H201.39V340.58H321v26.58h-75.6v29.77h71.29Z"/><path class="cls-3" d="M354.9,483.9V340.58h51.17l40.25,52.52a380.3,380.3,0,0,1,31.62,49.12h.87c-2.88-18.92-3.74-38.27-3.74-59.75V340.58h40.25V483.9h-46l-41.4-55.29c-11.5-15.31-24.15-33.8-33.63-50.6l-.86.21c1.15,18.92,1.72,39.12,1.72,62.51V483.9Z"/><path class="cls-3" d="M695.56,479.86c-8,3-26.16,6.16-49.74,6.16-67,0-101.48-30.83-101.48-71.65,0-48.91,47.15-76.12,105.8-76.12,22.71,0,40,3.4,47.72,6.37L689,370.35a124.2,124.2,0,0,0-36.8-5.31c-34.79,0-61.81,15.52-61.81,47.41,0,28.71,23,46.78,62.1,46.78,13.22,0,27.88-2.12,36.51-4.67Z"/><path class="cls-6" d="M800.22,369.5a41,41,0,1,0,41,41A41,41,0,0,0,800.22,369.5Zm27,22.44-18.46,9.77a12.21,12.21,0,0,0-2.76-2V378.25A32.79,32.79,0,0,1,827.26,391.94ZM773,428.9a32.86,32.86,0,0,1-4.08-28.32l19,9.84s0,.07,0,.11a12,12,0,0,0,.41,3.07Zm17.88-18.37a9.33,9.33,0,1,1,9.32,9.32A9.33,9.33,0,0,1,790.9,410.53Zm5-32.51v21a12.19,12.19,0,0,0-3.68,2.18l-18.7-9.69A32.78,32.78,0,0,1,795.88,378ZM780,436.32l14.78-14.78a12.17,12.17,0,0,0,8.47.91l14.33,15.91a32.64,32.64,0,0,1-37.58-2Zm45.28-4.59-14.07-15.62a12.23,12.23,0,0,0,1.31-4.87l19.17-10.13a32.77,32.77,0,0,1-6.41,30.62Z"/><path class="cls-3" d="M800.22,332c-45.35,0-82.11,35.15-82.11,78.51S754.87,489,800.22,489s82.11-35.15,82.11-78.5S845.57,332,800.22,332Zm0,130.84c-30.23,0-54.74-23.43-54.74-52.33s24.51-52.34,54.74-52.34S855,381.62,855,410.53,830.45,462.86,800.22,462.86Z"/></svg>